<svg width="24" height="24" viewBox="0 0 24 24" fill="none" xmlns="http://www.w3.org/2000/svg">
<path d="M7.10384 13.7638C8.79583 13.7638 10.1518 15.1331 10.1518 16.8371V20.928C10.1518 22.62 8.79583 24 7.10384 24H3.04786C1.36787 24 -0.00012207 22.62 -0.00012207 20.928V16.8371C-0.00012207 15.1331 1.36787 13.7638 3.04786 13.7638H7.10384ZM20.9519 13.7638C22.6319 13.7638 23.9999 15.1331 23.9999 16.8371V20.928C23.9999 22.62 22.6319 24 20.9519 24H16.8959C15.2039 24 13.8479 22.62 13.8479 20.928V16.8371C13.8479 15.1331 15.2039 13.7638 16.8959 13.7638H20.9519ZM7.10384 0C8.79583 0 10.1518 1.38002 10.1518 3.07325V7.16411C10.1518 8.86813 8.79583 10.2362 7.10384 10.2362H3.04786C1.36787 10.2362 -0.00012207 8.86813 -0.00012207 7.16411V3.07325C-0.00012207 1.38002 1.36787 0 3.04786 0H7.10384ZM20.9519 0C22.6319 0 23.9999 1.38002 23.9999 3.07325V7.16411C23.9999 8.86813 22.6319 10.2362 20.9519 10.2362H16.8959C15.2039 10.2362 13.8479 8.86813 13.8479 7.16411V3.07325C13.8479 1.38002 15.2039 0 16.8959 0H20.9519Z" fill="#385768"/>
</svg>
