<svg width="26" height="27" viewBox="0 0 26 27" fill="none" xmlns="http://www.w3.org/2000/svg">
<path fill-rule="evenodd" clip-rule="evenodd" d="M13.1113 1C16.3486 1 19.391 2.2992 21.6761 4.65916C26.3996 9.53494 26.3996 17.4674 21.6761 22.3432C19.3605 24.7345 16.2427 26 13.0843 26C11.3625 26 9.62951 25.6243 8.00805 24.8497C7.53028 24.652 7.08295 24.4659 6.76181 24.4659C6.39222 24.4682 5.8953 24.645 5.41529 24.8159C4.43046 25.1649 3.20451 25.5999 2.29744 24.6671C1.39374 23.7331 1.81066 22.4711 2.14645 21.4557C2.31208 20.9556 2.48223 20.4391 2.48223 20.0483C2.48223 19.7273 2.33237 19.3179 2.1025 18.7282C-0.00799118 14.0234 0.967816 8.35321 4.54765 4.66032C6.8328 2.30036 9.87402 1 13.1113 1ZM13.1124 2.74467C10.3259 2.74467 7.70832 3.86359 5.74206 5.89439C2.66139 9.07202 1.82305 13.9513 3.6541 18.0373C3.91777 18.7108 4.17243 19.3668 4.17243 20.0483C4.17243 20.7288 3.94594 21.4138 3.7465 22.0187C3.58199 22.5165 3.33296 23.2678 3.49297 23.433C3.64959 23.6005 4.38201 23.3365 4.86541 23.1655C5.44571 22.9608 6.10376 22.7258 6.75617 22.7212C7.40972 22.7212 8.02607 22.9771 8.67849 23.2481C12.6752 25.1556 17.4022 24.2879 20.4817 21.1103C24.5449 16.9137 24.5449 10.0874 20.4817 5.89323C18.5143 3.86243 15.8979 2.74467 13.1124 2.74467ZM17.5598 12.8204C18.1818 12.8204 18.6866 13.3403 18.6866 13.9835C18.6866 14.6267 18.1818 15.1466 17.5598 15.1466C16.9378 15.1466 16.4285 14.6267 16.4285 13.9835C16.4285 13.3403 16.9277 12.8204 17.5497 12.8204H17.5598ZM13.0427 12.8204C13.6647 12.8204 14.1695 13.3403 14.1695 13.9835C14.1695 14.6267 13.6647 15.1466 13.0427 15.1466C12.4207 15.1466 11.9114 14.6267 11.9114 13.9835C11.9114 13.3403 12.4094 12.8204 13.0325 12.8204H13.0427ZM8.52513 12.8204C9.14713 12.8204 9.65193 13.3403 9.65193 13.9835C9.65193 14.6267 9.14713 15.1466 8.52513 15.1466C7.90314 15.1466 7.39383 14.6267 7.39383 13.9835C7.39383 13.3403 7.893 12.8204 8.51499 12.8204H8.52513Z" fill="url(#paint0_linear_168_39)" stroke="url(#paint1_linear_168_39)" stroke-width="1.5"/>
<defs>
<linearGradient id="paint0_linear_168_39" x1="1" y1="26" x2="25.2188" y2="26" gradientUnits="userSpaceOnUse">
<stop stop-color="#FF3A75"/>
<stop offset="1" stop-color="#FF6E5A"/>
</linearGradient>
<linearGradient id="paint1_linear_168_39" x1="1" y1="26" x2="25.2188" y2="26" gradientUnits="userSpaceOnUse">
<stop stop-color="#FF3A75"/>
<stop offset="1" stop-color="#FF6E5A"/>
</linearGradient>
</defs>
</svg>
