<svg width="24" height="24" viewBox="0 0 24 24" fill="none" xmlns="http://www.w3.org/2000/svg">
<path d="M22.653 21.271C23.3958 21.271 24 21.883 24 22.6355C24 23.3894 23.3958 24 22.653 24H15.0396C14.2968 24 13.6926 23.3894 13.6926 22.6355C13.6926 21.883 14.2968 21.271 15.0396 21.271H22.653ZM17.3731 0.932085L19.3398 2.49438C20.1463 3.12503 20.684 3.95634 20.8679 4.83065C21.0801 5.7924 20.8537 6.73694 20.217 7.55392L8.50186 22.7039C7.96421 23.3919 7.17188 23.7788 6.32295 23.7932L1.65386 23.8505C1.39918 23.8505 1.18695 23.6785 1.13036 23.4349L0.0691979 18.834C-0.114736 17.9883 0.0691979 17.114 0.606851 16.4404L8.91218 5.69063C9.05367 5.51864 9.30834 5.4914 9.47813 5.61897L12.9729 8.39956C13.1993 8.58589 13.5105 8.68622 13.8359 8.64322C14.5292 8.55723 14.9961 7.92658 14.9254 7.25293C14.883 6.90893 14.7132 6.62227 14.4868 6.40728C14.416 6.34995 11.0911 3.68402 11.0911 3.68402C10.8789 3.51202 10.8364 3.19669 11.0062 2.98313L12.322 1.27608C13.5388 -0.286218 15.6611 -0.429547 17.3731 0.932085Z" fill="#385768"/>
</svg>
