<svg width="29" height="20" viewBox="0 0 29 20" fill="none" xmlns="http://www.w3.org/2000/svg">
<path fill-rule="evenodd" clip-rule="evenodd" d="M11.7678 1.0925C10.7786 0.103281 9.17473 0.103281 8.18551 1.0925L1.02096 8.25705C1.01893 8.25908 1.0169 8.26111 1.01488 8.26315C0.937427 8.32431 0.862723 8.39064 0.79123 8.46213C-0.197988 9.45135 -0.197988 11.0552 0.791229 12.0444L7.95577 19.209C8.94499 20.1982 10.5488 20.1982 11.538 19.209C12.5273 18.2197 12.5273 16.6159 11.538 15.6267L6.17696 10.2656L11.7678 4.67477C12.757 3.68556 12.757 2.08172 11.7678 1.0925ZM16.7912 19.209C17.7804 20.1982 19.3843 20.1982 20.3735 19.209L27.538 12.0444L27.5441 12.0383C27.6216 11.9771 27.6963 11.9108 27.7678 11.8393C28.757 10.8501 28.757 9.24627 27.7678 8.25705L20.6032 1.0925C19.614 0.103284 18.0102 0.103283 17.021 1.0925C16.0317 2.08172 16.0317 3.68556 17.021 4.67478L22.382 10.0359L16.7912 15.6267C15.802 16.6159 15.802 18.2197 16.7912 19.209Z" fill="#385768"/>
</svg>
