<svg width="24" height="23" viewBox="0 0 24 23" fill="none" xmlns="http://www.w3.org/2000/svg">
<path d="M9.50904 1.7472C10.2931 -0.582401 13.7069 -0.582399 14.491 1.7472L15.5282 4.82915C15.8789 5.87098 16.8845 6.57635 18.0192 6.57635H21.3758C23.9131 6.57635 24.968 9.71081 22.9153 11.1506L20.1997 13.0553C19.2818 13.6992 18.8976 14.8405 19.2483 15.8824L20.2855 18.9643C21.0696 21.2939 18.3077 23.2311 16.2551 21.7913L13.5395 19.8866C12.6215 19.2427 11.3785 19.2427 10.4605 19.8866L7.74492 21.7913C5.69225 23.2311 2.93041 21.2939 3.71446 18.9643L4.75172 15.8824C5.10235 14.8405 4.71823 13.6992 3.80025 13.0553L1.08467 11.1506C-0.967993 9.71081 0.0869396 6.57635 2.62418 6.57635H5.98081C7.1155 6.57635 8.12114 5.87098 8.47178 4.82915L9.50904 1.7472Z" fill="#FFB84D"/>
</svg>
