<svg width="26" height="25" viewBox="0 0 26 25" fill="none" xmlns="http://www.w3.org/2000/svg">
<path fill-rule="evenodd" clip-rule="evenodd" d="M7.18452 21.1177C8.04132 21.1177 8.73852 21.8137 8.73852 22.6705C8.73852 23.5273 8.04132 24.2245 7.18452 24.2245C6.32771 24.2245 5.63171 23.5273 5.63171 22.6705C5.63171 21.8137 6.32771 21.1177 7.18452 21.1177ZM20.7209 21.1177C21.5789 21.1177 22.2761 21.8137 22.2761 22.6705C22.2761 23.5273 21.5789 24.2245 20.7209 24.2245C19.8641 24.2245 19.1681 23.5273 19.1681 22.6705C19.1681 21.8137 19.8641 21.1177 20.7209 21.1177ZM2.05354 0.786775L4.54955 1.21878C4.95155 1.28958 5.25755 1.62318 5.29235 2.03118L5.57435 5.39239L6.62298 5.39284C6.79409 5.39292 6.9634 5.393 7.1309 5.39307L9.05608 5.39399C9.20953 5.39406 9.36127 5.39414 9.51132 5.39422L11.637 5.39538C11.7705 5.39546 11.9025 5.39554 12.0328 5.39562L13.5224 5.39657C13.6405 5.39665 13.757 5.39673 13.872 5.39681L15.1822 5.39777C15.2856 5.39786 15.3876 5.39794 15.4883 5.39802L16.6306 5.399C16.7205 5.39908 16.809 5.39916 16.8963 5.39925L17.6471 5.39999C17.7267 5.40008 17.8052 5.40016 17.8824 5.40024L18.7519 5.40125C18.8197 5.40134 18.8863 5.40142 18.9519 5.40151L19.686 5.40253C19.7429 5.40262 19.7988 5.4027 19.8536 5.40279L20.3202 5.40357C20.3691 5.40366 20.417 5.40374 20.464 5.40383L20.9838 5.40488C21.0235 5.40497 21.0624 5.40506 21.1004 5.40515L21.4203 5.40595C21.4534 5.40604 21.4857 5.40613 21.5173 5.40622L21.8602 5.4073C21.8859 5.40739 21.9109 5.40748 21.9352 5.40757L22.1365 5.40839C22.157 5.40848 22.1769 5.40858 22.1961 5.40867L22.3998 5.40978C22.4146 5.40987 22.4289 5.40996 22.4426 5.41006L22.5536 5.4109C22.5646 5.41099 22.5751 5.41109 22.5852 5.41118L22.6651 5.41203C22.6728 5.41213 22.6802 5.41222 22.6872 5.41232L22.7416 5.41318C22.7467 5.41328 22.7515 5.41337 22.7561 5.41347L22.7905 5.41434C22.7936 5.41444 22.7966 5.41454 22.7993 5.41463L22.8242 5.41581L22.8285 5.4161C22.8402 5.41719 22.8436 5.41759 22.8436 5.41759C23.512 5.51479 24.1 5.864 24.5008 6.4016C24.9016 6.938 25.0696 7.5992 24.9736 8.2616L23.8348 16.1312C23.62 17.6288 22.3192 18.758 20.8072 18.758H7.70196C6.12155 18.758 4.78355 17.5244 4.65515 15.9464L3.55594 2.87358L1.74754 2.56158C1.25674 2.47518 0.929134 2.01078 1.01313 1.51998C1.09953 1.02918 1.57354 0.709975 2.05354 0.786775ZM6.38223 7.19281L5.72555 7.1924L6.44916 15.7988C6.50196 16.4612 7.04316 16.958 7.70436 16.958H20.8048C21.43 16.958 21.964 16.4924 22.0528 15.8744L23.1928 8.0036C23.2192 7.8164 23.1724 7.6292 23.0584 7.478C22.9456 7.3256 22.78 7.2272 22.5928 7.2008C22.5842 7.20113 22.5634 7.20143 22.5312 7.20171L22.4007 7.20246C22.3734 7.20257 22.3434 7.20267 22.3107 7.20277L21.6309 7.2038C21.5735 7.20384 21.5139 7.20388 21.4521 7.20391L19.8537 7.20384C19.7645 7.20381 19.6736 7.20377 19.5811 7.20373L17.757 7.20262C17.6477 7.20254 17.5372 7.20246 17.4256 7.20238L16.3934 7.20155C16.2759 7.20145 16.1574 7.20135 16.0382 7.20125L14.9449 7.20029C14.8214 7.20018 14.6973 7.20007 14.5728 7.19995L13.8197 7.19926C13.6933 7.19914 13.5666 7.19903 13.4395 7.19891L12.2903 7.19783C12.1622 7.19771 12.0339 7.19759 11.9057 7.19747L11.1369 7.19676C11.009 7.19664 10.8812 7.19652 10.7536 7.19641L9.99137 7.19571C9.86496 7.1956 9.73892 7.19549 9.61331 7.19538L8.4967 7.19442C8.37439 7.19431 8.25274 7.19421 8.13182 7.19411L6.7207 7.19304C6.60683 7.19296 6.49398 7.19288 6.38223 7.19281ZM17.8775 10.828C18.3743 10.828 18.7775 11.2312 18.7775 11.728C18.7775 12.2248 18.3743 12.628 17.8775 12.628H14.5511C14.0531 12.628 13.6511 12.2248 13.6511 11.728C13.6511 11.2312 14.0531 10.828 14.5511 10.828H17.8775Z" fill="url(#paint0_linear_138_712)" stroke="url(#paint1_linear_138_712)" stroke-width="1.3"/>
<defs>
<linearGradient id="paint0_linear_138_712" x1="1" y1="24.2246" x2="25" y2="24.2246" gradientUnits="userSpaceOnUse">
<stop stop-color="#FF3A75"/>
<stop offset="1" stop-color="#FF6E5A"/>
</linearGradient>
<linearGradient id="paint1_linear_138_712" x1="1" y1="24.2246" x2="25" y2="24.2246" gradientUnits="userSpaceOnUse">
<stop stop-color="#FF3A75"/>
<stop offset="1" stop-color="#FF6E5A"/>
</linearGradient>
</defs>
</svg>
