<svg width="24" height="24" viewBox="0 0 24 24" fill="none" xmlns="http://www.w3.org/2000/svg">
<path fill-rule="evenodd" clip-rule="evenodd" d="M8.17071 0H7.99994C7.72831 0 7.46511 0.0361004 7.21489 0.103765C6.24725 0.165982 5.32777 0.695359 4.80658 1.59807L1.25887 7.74289C0.430447 9.17777 0.92207 11.0125 2.35695 11.841L4.99994 13.3669V20C4.99994 22.2091 6.79081 24 8.99994 24H14.9999C17.2091 24 18.9999 22.2091 18.9999 20V13.4611L21.806 11.841C23.2408 11.0126 23.7325 9.17782 22.904 7.74294L19.3563 1.59813C18.8018 0.63771 17.7965 0.099885 16.762 0.0976372C16.5186 0.0339231 16.2633 0 15.9999 0H15.8293C15.4175 1.16519 14.3062 2 13 2H11C9.69378 2 8.58254 1.16519 8.17071 0Z" fill="#385768"/>
</svg>
