<svg width="28" height="26" viewBox="0 0 28 26" fill="none" xmlns="http://www.w3.org/2000/svg">
<path fill-rule="evenodd" clip-rule="evenodd" d="M19.3283 1C23.4678 1 26.8351 4.36724 26.8351 8.50806V17.4919C26.8351 21.6315 23.4678 25 19.3283 25H8.50806C4.36849 25 1 21.6315 1 17.4919V8.50806C1 4.36724 4.36849 1 8.50806 1H19.3283ZM19.3283 2.87764H8.50806C5.40369 2.87764 2.87764 5.40369 2.87764 8.50806V17.4919C2.87764 20.5963 5.40369 23.1224 8.50806 23.1224H19.3283C22.4326 23.1224 24.9574 20.5963 24.9574 17.4919V17.1414L20.8293 17.1422C18.4547 17.1422 16.522 15.2107 16.5207 12.8374C16.5207 10.4616 18.4534 8.52884 20.8293 8.52759L24.9574 8.52683V8.50806C24.9574 5.40369 22.4326 2.87764 19.3283 2.87764ZM24.9574 10.4045L20.8293 10.4052C19.4886 10.4065 18.3983 11.4968 18.3983 12.8361C18.3983 14.1743 19.4899 15.2646 20.8293 15.2646L24.9574 15.2638V10.4045ZM14.3751 6.68061C14.8933 6.68061 15.3139 7.1012 15.3139 7.61943C15.3139 8.13766 14.8933 8.55825 14.3751 8.55825H7.61681C7.09858 8.55825 6.67798 8.13766 6.67798 7.61943C6.67798 7.1012 7.09858 6.68061 7.61681 6.68061H14.3751Z" fill="white" stroke="white" stroke-width="1.3"/>
</svg>
